<mxfile host="app.diagrams.net" modified="2024-02-04T10:51:02.933Z" agent="Mozilla/5.0 (Windows NT 10.0; Win64; x64; rv:122.0) Gecko/20100101 Firefox/122.0" etag="_NnHXUY-ouzlh-NvFSUo" version="23.1.1" type="device">
  <diagram name="Page-1" id="btkLHHOqxHD5Nzq1zL4t">
    <mxGraphModel dx="686" dy="2099" grid="1" gridSize="10" guides="1" tooltips="1" connect="1" arrows="1" fold="1" page="1" pageScale="1" pageWidth="850" pageHeight="1100" math="0" shadow="0">
      <root>
        <mxCell id="0" />
        <mxCell id="1" parent="0" />
        <mxCell id="IwAF-L6zNag-LjwmXYnY-62" style="rounded=0;orthogonalLoop=1;jettySize=auto;html=1;entryX=0;entryY=0;entryDx=0;entryDy=0;startArrow=classic;startFill=1;fillColor=#dae8fc;strokeColor=#6c8ebf;" parent="1" source="IwAF-L6zNag-LjwmXYnY-52" target="IwAF-L6zNag-LjwmXYnY-57" edge="1">
          <mxGeometry relative="1" as="geometry" />
        </mxCell>
        <mxCell id="IwAF-L6zNag-LjwmXYnY-105" style="rounded=0;orthogonalLoop=1;jettySize=auto;html=1;entryX=0;entryY=0;entryDx=0;entryDy=0;startArrow=classic;startFill=1;fillColor=#f8cecc;strokeColor=#b85450;" parent="1" source="IwAF-L6zNag-LjwmXYnY-52" target="IwAF-L6zNag-LjwmXYnY-103" edge="1">
          <mxGeometry relative="1" as="geometry" />
        </mxCell>
        <mxCell id="IwAF-L6zNag-LjwmXYnY-112" style="rounded=0;orthogonalLoop=1;jettySize=auto;html=1;startArrow=classic;startFill=1;" parent="1" source="IwAF-L6zNag-LjwmXYnY-52" target="IwAF-L6zNag-LjwmXYnY-56" edge="1">
          <mxGeometry relative="1" as="geometry" />
        </mxCell>
        <mxCell id="IwAF-L6zNag-LjwmXYnY-52" value="User node 1" style="ellipse;whiteSpace=wrap;html=1;fillColor=#f8cecc;strokeColor=#b85450;" parent="1" vertex="1">
          <mxGeometry x="200" y="90" width="120" height="80" as="geometry" />
        </mxCell>
        <mxCell id="IwAF-L6zNag-LjwmXYnY-53" value="&lt;div&gt;Key/secret&lt;/div&gt;&lt;div&gt;db&lt;br&gt;&lt;/div&gt;" style="shape=cylinder3;whiteSpace=wrap;html=1;boundedLbl=1;backgroundOutline=1;size=15;fillColor=#d5e8d4;strokeColor=#82b366;" parent="1" vertex="1">
          <mxGeometry x="420" y="520" width="60" height="80" as="geometry" />
        </mxCell>
        <mxCell id="IwAF-L6zNag-LjwmXYnY-61" style="rounded=0;orthogonalLoop=1;jettySize=auto;html=1;entryX=1;entryY=0;entryDx=0;entryDy=0;startArrow=classic;startFill=1;fillColor=#dae8fc;strokeColor=#6c8ebf;exitX=0.5;exitY=1;exitDx=0;exitDy=0;" parent="1" source="IwAF-L6zNag-LjwmXYnY-54" target="IwAF-L6zNag-LjwmXYnY-57" edge="1">
          <mxGeometry relative="1" as="geometry" />
        </mxCell>
        <mxCell id="IwAF-L6zNag-LjwmXYnY-109" style="rounded=0;orthogonalLoop=1;jettySize=auto;html=1;entryX=0.5;entryY=0;entryDx=0;entryDy=0;startArrow=classic;startFill=1;" parent="1" source="IwAF-L6zNag-LjwmXYnY-54" target="IwAF-L6zNag-LjwmXYnY-55" edge="1">
          <mxGeometry relative="1" as="geometry">
            <Array as="points">
              <mxPoint x="680" y="230" />
            </Array>
          </mxGeometry>
        </mxCell>
        <mxCell id="IwAF-L6zNag-LjwmXYnY-111" style="edgeStyle=orthogonalEdgeStyle;rounded=0;orthogonalLoop=1;jettySize=auto;html=1;startArrow=classic;startFill=1;" parent="1" source="IwAF-L6zNag-LjwmXYnY-54" target="IwAF-L6zNag-LjwmXYnY-52" edge="1">
          <mxGeometry relative="1" as="geometry" />
        </mxCell>
        <mxCell id="IwAF-L6zNag-LjwmXYnY-54" value="User node 2" style="ellipse;whiteSpace=wrap;html=1;fillColor=#f8cecc;strokeColor=#b85450;" parent="1" vertex="1">
          <mxGeometry x="570" y="90" width="120" height="80" as="geometry" />
        </mxCell>
        <mxCell id="IwAF-L6zNag-LjwmXYnY-60" style="rounded=0;orthogonalLoop=1;jettySize=auto;html=1;entryX=1;entryY=0.5;entryDx=0;entryDy=0;startArrow=classic;startFill=1;fillColor=#dae8fc;strokeColor=#6c8ebf;" parent="1" source="IwAF-L6zNag-LjwmXYnY-55" target="IwAF-L6zNag-LjwmXYnY-57" edge="1">
          <mxGeometry relative="1" as="geometry" />
        </mxCell>
        <mxCell id="IwAF-L6zNag-LjwmXYnY-110" style="edgeStyle=orthogonalEdgeStyle;rounded=0;orthogonalLoop=1;jettySize=auto;html=1;startArrow=classic;startFill=1;" parent="1" source="IwAF-L6zNag-LjwmXYnY-55" target="IwAF-L6zNag-LjwmXYnY-56" edge="1">
          <mxGeometry relative="1" as="geometry" />
        </mxCell>
        <mxCell id="IwAF-L6zNag-LjwmXYnY-113" style="rounded=0;orthogonalLoop=1;jettySize=auto;html=1;entryX=1;entryY=1;entryDx=0;entryDy=0;startArrow=classic;startFill=1;" parent="1" source="IwAF-L6zNag-LjwmXYnY-55" target="IwAF-L6zNag-LjwmXYnY-52" edge="1">
          <mxGeometry relative="1" as="geometry">
            <Array as="points">
              <mxPoint x="410" y="290" />
            </Array>
          </mxGeometry>
        </mxCell>
        <mxCell id="IwAF-L6zNag-LjwmXYnY-55" value="User node 3" style="ellipse;whiteSpace=wrap;html=1;fillColor=#f8cecc;strokeColor=#b85450;" parent="1" vertex="1">
          <mxGeometry x="650" y="290" width="120" height="80" as="geometry" />
        </mxCell>
        <mxCell id="IwAF-L6zNag-LjwmXYnY-63" style="rounded=0;orthogonalLoop=1;jettySize=auto;html=1;entryX=0;entryY=0.5;entryDx=0;entryDy=0;startArrow=classic;startFill=1;fillColor=#dae8fc;strokeColor=#6c8ebf;" parent="1" source="IwAF-L6zNag-LjwmXYnY-56" target="IwAF-L6zNag-LjwmXYnY-57" edge="1">
          <mxGeometry relative="1" as="geometry" />
        </mxCell>
        <mxCell id="IwAF-L6zNag-LjwmXYnY-75" style="rounded=0;orthogonalLoop=1;jettySize=auto;html=1;entryX=0;entryY=1;entryDx=0;entryDy=0;exitX=1;exitY=0;exitDx=0;exitDy=0;startArrow=classic;startFill=1;fillColor=#f8cecc;strokeColor=#b85450;" parent="1" source="IwAF-L6zNag-LjwmXYnY-103" target="IwAF-L6zNag-LjwmXYnY-54" edge="1">
          <mxGeometry relative="1" as="geometry" />
        </mxCell>
        <mxCell id="IwAF-L6zNag-LjwmXYnY-91" style="edgeStyle=orthogonalEdgeStyle;rounded=0;orthogonalLoop=1;jettySize=auto;html=1;entryX=0;entryY=0.5;entryDx=0;entryDy=0;exitX=0;exitY=0.5;exitDx=0;exitDy=0;startArrow=classic;startFill=1;fillColor=#dae8fc;strokeColor=#6c8ebf;" parent="1" source="IwAF-L6zNag-LjwmXYnY-56" target="IwAF-L6zNag-LjwmXYnY-87" edge="1">
          <mxGeometry relative="1" as="geometry">
            <Array as="points">
              <mxPoint x="145" y="330" />
              <mxPoint x="145" />
            </Array>
          </mxGeometry>
        </mxCell>
        <mxCell id="IwAF-L6zNag-LjwmXYnY-114" style="rounded=0;orthogonalLoop=1;jettySize=auto;html=1;entryX=0.327;entryY=0.961;entryDx=0;entryDy=0;entryPerimeter=0;" parent="1" source="IwAF-L6zNag-LjwmXYnY-56" target="IwAF-L6zNag-LjwmXYnY-54" edge="1">
          <mxGeometry relative="1" as="geometry">
            <Array as="points">
              <mxPoint x="510" y="290" />
            </Array>
          </mxGeometry>
        </mxCell>
        <mxCell id="IwAF-L6zNag-LjwmXYnY-56" value="&lt;div&gt;User node 4&lt;/div&gt;" style="ellipse;whiteSpace=wrap;html=1;fillColor=#f8cecc;strokeColor=#b85450;" parent="1" vertex="1">
          <mxGeometry x="165" y="290" width="120" height="80" as="geometry" />
        </mxCell>
        <mxCell id="IwAF-L6zNag-LjwmXYnY-57" value="Key/secret node" style="ellipse;whiteSpace=wrap;html=1;fillColor=#dae8fc;strokeColor=#6c8ebf;" parent="1" vertex="1">
          <mxGeometry x="390" y="380" width="120" height="80" as="geometry" />
        </mxCell>
        <mxCell id="IwAF-L6zNag-LjwmXYnY-58" style="edgeStyle=orthogonalEdgeStyle;rounded=0;orthogonalLoop=1;jettySize=auto;html=1;entryX=0.5;entryY=0;entryDx=0;entryDy=0;entryPerimeter=0;startArrow=classic;startFill=1;fillColor=#d5e8d4;strokeColor=#82b366;" parent="1" source="IwAF-L6zNag-LjwmXYnY-57" target="IwAF-L6zNag-LjwmXYnY-53" edge="1">
          <mxGeometry relative="1" as="geometry" />
        </mxCell>
        <mxCell id="IwAF-L6zNag-LjwmXYnY-92" style="edgeStyle=orthogonalEdgeStyle;rounded=0;orthogonalLoop=1;jettySize=auto;html=1;entryX=1;entryY=0.5;entryDx=0;entryDy=0;startArrow=classic;startFill=1;fillColor=#dae8fc;strokeColor=#6c8ebf;" parent="1" source="IwAF-L6zNag-LjwmXYnY-87" target="IwAF-L6zNag-LjwmXYnY-55" edge="1">
          <mxGeometry relative="1" as="geometry" />
        </mxCell>
        <mxCell id="IwAF-L6zNag-LjwmXYnY-93" style="rounded=0;orthogonalLoop=1;jettySize=auto;html=1;startArrow=classic;startFill=1;fillColor=#dae8fc;strokeColor=#6c8ebf;" parent="1" source="IwAF-L6zNag-LjwmXYnY-87" target="IwAF-L6zNag-LjwmXYnY-54" edge="1">
          <mxGeometry relative="1" as="geometry" />
        </mxCell>
        <mxCell id="IwAF-L6zNag-LjwmXYnY-94" style="rounded=0;orthogonalLoop=1;jettySize=auto;html=1;entryX=1;entryY=0;entryDx=0;entryDy=0;startArrow=classic;startFill=1;fillColor=#dae8fc;strokeColor=#6c8ebf;" parent="1" source="IwAF-L6zNag-LjwmXYnY-87" target="IwAF-L6zNag-LjwmXYnY-52" edge="1">
          <mxGeometry relative="1" as="geometry" />
        </mxCell>
        <mxCell id="IwAF-L6zNag-LjwmXYnY-107" style="edgeStyle=orthogonalEdgeStyle;rounded=0;orthogonalLoop=1;jettySize=auto;html=1;entryX=0.5;entryY=0;entryDx=0;entryDy=0;startArrow=classic;startFill=1;fillColor=#f8cecc;strokeColor=#b85450;" parent="1" source="IwAF-L6zNag-LjwmXYnY-87" target="IwAF-L6zNag-LjwmXYnY-103" edge="1">
          <mxGeometry relative="1" as="geometry" />
        </mxCell>
        <mxCell id="IwAF-L6zNag-LjwmXYnY-87" value="Login node" style="ellipse;whiteSpace=wrap;html=1;fillColor=#dae8fc;strokeColor=#6c8ebf;" parent="1" vertex="1">
          <mxGeometry x="390" y="-40" width="120" height="80" as="geometry" />
        </mxCell>
        <mxCell id="IwAF-L6zNag-LjwmXYnY-95" value="&lt;div&gt;User&lt;/div&gt;&lt;div&gt;db&lt;br&gt;&lt;/div&gt;" style="shape=cylinder3;whiteSpace=wrap;html=1;boundedLbl=1;backgroundOutline=1;size=15;fillColor=#d5e8d4;strokeColor=#82b366;" parent="1" vertex="1">
          <mxGeometry x="420" y="-180" width="60" height="80" as="geometry" />
        </mxCell>
        <mxCell id="IwAF-L6zNag-LjwmXYnY-97" style="edgeStyle=orthogonalEdgeStyle;rounded=0;orthogonalLoop=1;jettySize=auto;html=1;entryX=0.5;entryY=1;entryDx=0;entryDy=0;entryPerimeter=0;startArrow=classic;startFill=1;fillColor=#d5e8d4;strokeColor=#82b366;" parent="1" source="IwAF-L6zNag-LjwmXYnY-87" target="IwAF-L6zNag-LjwmXYnY-95" edge="1">
          <mxGeometry relative="1" as="geometry" />
        </mxCell>
        <mxCell id="IwAF-L6zNag-LjwmXYnY-98" value="" style="group" parent="1" vertex="1" connectable="0">
          <mxGeometry x="140" y="460" width="240" height="210" as="geometry" />
        </mxCell>
        <mxCell id="IwAF-L6zNag-LjwmXYnY-64" value="" style="rounded=1;whiteSpace=wrap;html=1;" parent="IwAF-L6zNag-LjwmXYnY-98" vertex="1">
          <mxGeometry width="240" height="210" as="geometry" />
        </mxCell>
        <mxCell id="IwAF-L6zNag-LjwmXYnY-65" value="" style="ellipse;whiteSpace=wrap;html=1;fillColor=#f8cecc;strokeColor=#b85450;" parent="IwAF-L6zNag-LjwmXYnY-98" vertex="1">
          <mxGeometry x="20" y="20" width="30" height="20" as="geometry" />
        </mxCell>
        <mxCell id="IwAF-L6zNag-LjwmXYnY-66" value="&lt;div align=&quot;left&quot;&gt;Client&lt;/div&gt;" style="text;html=1;align=left;verticalAlign=middle;resizable=0;points=[];autosize=1;strokeColor=none;fillColor=none;" parent="IwAF-L6zNag-LjwmXYnY-98" vertex="1">
          <mxGeometry x="60" y="15" width="50" height="30" as="geometry" />
        </mxCell>
        <mxCell id="IwAF-L6zNag-LjwmXYnY-67" value="" style="ellipse;whiteSpace=wrap;html=1;fillColor=#dae8fc;strokeColor=#6c8ebf;" parent="IwAF-L6zNag-LjwmXYnY-98" vertex="1">
          <mxGeometry x="20" y="60" width="30" height="20" as="geometry" />
        </mxCell>
        <mxCell id="IwAF-L6zNag-LjwmXYnY-68" value="Server" style="text;html=1;align=left;verticalAlign=middle;resizable=0;points=[];autosize=1;strokeColor=none;fillColor=none;" parent="IwAF-L6zNag-LjwmXYnY-98" vertex="1">
          <mxGeometry x="60" y="55" width="60" height="30" as="geometry" />
        </mxCell>
        <mxCell id="IwAF-L6zNag-LjwmXYnY-77" value="" style="ellipse;whiteSpace=wrap;html=1;fillColor=#d5e8d4;strokeColor=#82b366;" parent="IwAF-L6zNag-LjwmXYnY-98" vertex="1">
          <mxGeometry x="20" y="105" width="30" height="20" as="geometry" />
        </mxCell>
        <mxCell id="IwAF-L6zNag-LjwmXYnY-78" value="Database" style="text;html=1;align=left;verticalAlign=middle;resizable=0;points=[];autosize=1;strokeColor=none;fillColor=none;" parent="IwAF-L6zNag-LjwmXYnY-98" vertex="1">
          <mxGeometry x="60" y="100" width="70" height="30" as="geometry" />
        </mxCell>
        <mxCell id="IwAF-L6zNag-LjwmXYnY-79" value="" style="endArrow=classic;html=1;rounded=0;fillColor=#dae8fc;strokeColor=#6c8ebf;" parent="IwAF-L6zNag-LjwmXYnY-98" edge="1">
          <mxGeometry width="50" height="50" relative="1" as="geometry">
            <mxPoint x="140" y="80" as="sourcePoint" />
            <mxPoint x="160" y="60" as="targetPoint" />
          </mxGeometry>
        </mxCell>
        <mxCell id="IwAF-L6zNag-LjwmXYnY-80" value="HTTP" style="text;html=1;align=left;verticalAlign=middle;resizable=0;points=[];autosize=1;strokeColor=none;fillColor=none;" parent="IwAF-L6zNag-LjwmXYnY-98" vertex="1">
          <mxGeometry x="165" y="55" width="50" height="30" as="geometry" />
        </mxCell>
        <mxCell id="IwAF-L6zNag-LjwmXYnY-81" value="" style="endArrow=classic;html=1;rounded=0;fillColor=#d5e8d4;strokeColor=#82b366;" parent="IwAF-L6zNag-LjwmXYnY-98" edge="1">
          <mxGeometry width="50" height="50" relative="1" as="geometry">
            <mxPoint x="140" y="125" as="sourcePoint" />
            <mxPoint x="160" y="105" as="targetPoint" />
          </mxGeometry>
        </mxCell>
        <mxCell id="IwAF-L6zNag-LjwmXYnY-82" value="SQL" style="text;html=1;align=left;verticalAlign=middle;resizable=0;points=[];autosize=1;strokeColor=none;fillColor=none;" parent="IwAF-L6zNag-LjwmXYnY-98" vertex="1">
          <mxGeometry x="165" y="100" width="50" height="30" as="geometry" />
        </mxCell>
        <mxCell id="IwAF-L6zNag-LjwmXYnY-83" value="" style="endArrow=classic;html=1;rounded=0;fillColor=#f8cecc;strokeColor=#b85450;" parent="IwAF-L6zNag-LjwmXYnY-98" edge="1">
          <mxGeometry width="50" height="50" relative="1" as="geometry">
            <mxPoint x="140" y="40" as="sourcePoint" />
            <mxPoint x="160" y="20" as="targetPoint" />
          </mxGeometry>
        </mxCell>
        <mxCell id="IwAF-L6zNag-LjwmXYnY-84" value="MQTT" style="text;html=1;align=left;verticalAlign=middle;resizable=0;points=[];autosize=1;strokeColor=none;fillColor=none;" parent="IwAF-L6zNag-LjwmXYnY-98" vertex="1">
          <mxGeometry x="165" y="15" width="60" height="30" as="geometry" />
        </mxCell>
        <mxCell id="IwAF-L6zNag-LjwmXYnY-116" value="" style="endArrow=classic;html=1;rounded=0;fillColor=#ffe6cc;strokeColor=#000000;" parent="IwAF-L6zNag-LjwmXYnY-98" edge="1">
          <mxGeometry width="50" height="50" relative="1" as="geometry">
            <mxPoint x="140" y="165" as="sourcePoint" />
            <mxPoint x="160" y="145" as="targetPoint" />
          </mxGeometry>
        </mxCell>
        <mxCell id="IwAF-L6zNag-LjwmXYnY-117" value="TCP" style="text;html=1;align=left;verticalAlign=middle;resizable=0;points=[];autosize=1;strokeColor=none;fillColor=none;" parent="IwAF-L6zNag-LjwmXYnY-98" vertex="1">
          <mxGeometry x="165" y="140" width="50" height="30" as="geometry" />
        </mxCell>
        <mxCell id="IwAF-L6zNag-LjwmXYnY-119" value="" style="ellipse;whiteSpace=wrap;html=1;fillColor=#e1d5e7;strokeColor=#9673a6;" parent="IwAF-L6zNag-LjwmXYnY-98" vertex="1">
          <mxGeometry x="20" y="145" width="30" height="20" as="geometry" />
        </mxCell>
        <mxCell id="IwAF-L6zNag-LjwmXYnY-120" value="Broker" style="text;html=1;align=left;verticalAlign=middle;resizable=0;points=[];autosize=1;strokeColor=none;fillColor=none;" parent="IwAF-L6zNag-LjwmXYnY-98" vertex="1">
          <mxGeometry x="60" y="140" width="60" height="30" as="geometry" />
        </mxCell>
        <mxCell id="IwAF-L6zNag-LjwmXYnY-99" value="Distributed Secret Storage V1.0 (4.2.2023)" style="text;html=1;strokeColor=none;fillColor=none;align=left;verticalAlign=middle;whiteSpace=wrap;rounded=0;fontStyle=1;fontSize=20;" parent="1" vertex="1">
          <mxGeometry x="610" y="-210" width="660" height="30" as="geometry" />
        </mxCell>
        <mxCell id="IwAF-L6zNag-LjwmXYnY-102" value="&lt;div align=&quot;left&quot;&gt;&lt;ul&gt;&lt;li&gt;Distributed system for accessing critical secrets (such as root keys)&lt;/li&gt;&lt;li&gt;When user logs in, other users are notified through MQTT &lt;br&gt;&lt;/li&gt;&lt;ul&gt;&lt;li&gt;Failed login attempts are reported as well&lt;br&gt;&lt;/li&gt;&lt;/ul&gt;&lt;li&gt;When a user wishes to access a secret, key/secret node will start a vote and notify other users through MQTT&lt;br&gt;&lt;/li&gt;&lt;ul&gt;&lt;li&gt;Other users must vote &quot;yay&quot; before access to the secret is granted&lt;br&gt;&lt;/li&gt;&lt;/ul&gt;&lt;li&gt;Secure key management, resource naming&lt;/li&gt;&lt;ul&gt;&lt;li&gt;Secure key management practices&lt;/li&gt;&lt;li&gt;When a key is added, the plaintext name is hashes to hide details&lt;/li&gt;&lt;ul&gt;&lt;li&gt;Users can request the key using the plaintext name&lt;/li&gt;&lt;/ul&gt;&lt;/ul&gt;&lt;li&gt;All nodes (except for MQTT broker) shall log events to the monitor node over HTTP&lt;/li&gt;&lt;ul&gt;&lt;li&gt;NOTE: Communication arrows not drawn due to keep the graph somewhat understandable&lt;/li&gt;&lt;li&gt;Logs are stored locally&lt;br&gt;&lt;/li&gt;&lt;/ul&gt;&lt;/ul&gt;&lt;/div&gt;" style="text;html=1;align=left;verticalAlign=middle;resizable=0;points=[];autosize=1;strokeColor=none;fillColor=none;" parent="1" vertex="1">
          <mxGeometry x="580" y="-180" width="650" height="210" as="geometry" />
        </mxCell>
        <mxCell id="IwAF-L6zNag-LjwmXYnY-104" value="" style="rounded=0;orthogonalLoop=1;jettySize=auto;html=1;entryX=0;entryY=1;entryDx=0;entryDy=0;exitX=1;exitY=0;exitDx=0;exitDy=0;startArrow=classic;startFill=1;fillColor=#f8cecc;strokeColor=#b85450;" parent="1" source="IwAF-L6zNag-LjwmXYnY-56" target="IwAF-L6zNag-LjwmXYnY-103" edge="1">
          <mxGeometry relative="1" as="geometry">
            <mxPoint x="267" y="302" as="sourcePoint" />
            <mxPoint x="588" y="158" as="targetPoint" />
          </mxGeometry>
        </mxCell>
        <mxCell id="IwAF-L6zNag-LjwmXYnY-106" style="rounded=0;orthogonalLoop=1;jettySize=auto;html=1;entryX=0;entryY=0;entryDx=0;entryDy=0;fillColor=#f8cecc;strokeColor=#b85450;startArrow=classic;startFill=1;" parent="1" source="IwAF-L6zNag-LjwmXYnY-103" target="IwAF-L6zNag-LjwmXYnY-55" edge="1">
          <mxGeometry relative="1" as="geometry" />
        </mxCell>
        <mxCell id="IwAF-L6zNag-LjwmXYnY-108" style="edgeStyle=orthogonalEdgeStyle;rounded=0;orthogonalLoop=1;jettySize=auto;html=1;startArrow=classic;startFill=1;fillColor=#f8cecc;strokeColor=#b85450;" parent="1" source="IwAF-L6zNag-LjwmXYnY-103" target="IwAF-L6zNag-LjwmXYnY-57" edge="1">
          <mxGeometry relative="1" as="geometry" />
        </mxCell>
        <mxCell id="IwAF-L6zNag-LjwmXYnY-103" value="MQTT broker" style="ellipse;whiteSpace=wrap;html=1;fillColor=#e1d5e7;strokeColor=#9673a6;" parent="1" vertex="1">
          <mxGeometry x="390" y="180" width="120" height="80" as="geometry" />
        </mxCell>
        <mxCell id="IwAF-L6zNag-LjwmXYnY-121" value="Monitor node" style="ellipse;whiteSpace=wrap;html=1;fillColor=#dae8fc;strokeColor=#6c8ebf;" parent="1" vertex="1">
          <mxGeometry x="630" y="410" width="120" height="80" as="geometry" />
        </mxCell>
      </root>
    </mxGraphModel>
  </diagram>
</mxfile>
